<?xml version="1.0" standalone="no"?>
<!DOCTYPE svg PUBLIC "-//W3C//DTD SVG 20010904//EN"
 "http://www.w3.org/TR/2001/REC-SVG-20010904/DTD/svg10.dtd">
<svg version="1.0" xmlns="http://www.w3.org/2000/svg"
 width="593.000000pt" height="593.000000pt" viewBox="0 0 593.000000 593.000000"
 preserveAspectRatio="xMidYMid meet">
<metadata>
Created by potrace 1.14, written by Peter Selinger 2001-2017
</metadata>
<g transform="translate(0.000000,593.000000) scale(0.100000,-0.100000)"
fill="#000000" stroke="none">
<path d="M1236 4712 c-4 -7 -1 -47 4 -47 2 0 5 -13 20 -75 6 -25 14 -52 17
-60 4 -8 8 -19 9 -25 1 -5 3 -12 4 -15 1 -3 3 -12 5 -20 28 -108 40 -146 47
-148 4 -2 6 -7 3 -11 -2 -5 7 -44 20 -87 13 -43 24 -79 24 -79 -2 0 14 -63 18
-75 8 -21 18 -55 26 -95 2 -5 5 -14 8 -20 5 -8 21 -68 34 -125 1 -3 7 -25 15
-50 12 -41 15 -52 23 -85 1 -5 6 -16 10 -22 5 -7 6 -13 2 -13 -3 0 1 -15 9
-34 8 -19 12 -37 8 -40 -3 -3 -1 -6 4 -6 8 0 12 -17 17 -72 1 -10 4 -18 8 -18
4 0 9 -14 12 -30 7 -35 15 -65 17 -65 1 0 3 -7 5 -15 11 -44 16 -62 40 -144
15 -49 27 -98 28 -108 1 -10 6 -18 11 -18 5 0 7 -3 3 -6 -3 -3 1 -24 9 -46 17
-49 18 -100 2 -116 -7 -7 -9 -12 -5 -12 3 0 2 -11 -3 -25 -5 -14 -12 -37 -14
-51 -5 -25 -21 -83 -33 -114 -3 -8 -7 -28 -9 -44 -3 -17 -9 -33 -15 -37 -7 -4
-8 -12 -4 -18 4 -7 1 -18 -5 -26 -6 -8 -9 -19 -5 -25 3 -5 2 -10 -2 -10 -5 0
-10 -11 -11 -26 -1 -14 -6 -33 -11 -42 -9 -18 -25 -92 -23 -104 1 -5 -3 -8 -8
-8 -6 0 -10 -6 -8 -12 2 -11 -23 -110 -40 -158 -7 -20 -12 -41 -15 -65 -2 -12
-6 -25 -9 -31 -5 -8 -35 -113 -43 -154 -2 -8 -4 -16 -5 -17 -2 -2 -4 -7 -5
-13 -1 -5 -3 -11 -5 -12 -2 -3 -8 -28 -15 -63 -12 -55 -32 -115 -36 -110 -3 3
-5 -5 -4 -18 1 -12 -5 -38 -13 -57 -8 -19 -14 -36 -13 -37 3 -9 -13 -64 -19
-68 -5 -3 -6 -14 -3 -25 3 -12 0 -20 -8 -20 -7 0 -10 -3 -7 -6 6 -5 0 -27 -43
-179 -35 -124 -35 -118 8 -110 21 4 43 10 48 15 6 4 18 6 28 5 9 -2 17 1 17 6
0 4 7 6 15 3 8 -4 15 -2 15 4 0 5 10 8 23 8 12 -1 27 1 32 5 9 6 96 31 152 44
12 3 33 9 45 14 13 5 26 9 31 10 4 0 9 2 12 2 11 3 21 5 55 13 19 5 40 11 45
14 6 4 17 8 25 9 8 1 58 14 110 28 52 15 101 27 108 27 6 1 12 4 12 8 0 3 8 7
18 8 34 3 57 8 67 14 14 8 118 33 128 30 4 -1 7 2 7 6 0 4 8 8 18 9 9 0 60 13
112 28 52 14 103 28 113 30 9 2 21 6 25 9 5 3 19 7 33 10 72 16 125 31 129 35
6 7 30 14 50 14 8 0 21 4 28 10 7 5 15 7 19 4 3 -4 12 -2 20 4 7 6 13 9 13 6
0 -3 24 2 53 12 50 17 121 22 142 10 10 -6 62 -21 80 -23 30 -4 82 -20 93 -29
7 -5 15 -7 19 -4 3 3 21 0 39 -8 19 -8 34 -12 34 -10 0 3 12 0 28 -6 28 -11
68 -21 90 -22 6 0 12 -3 12 -7 0 -4 6 -7 13 -7 6 0 55 -12 107 -27 123 -35
117 -33 170 -47 25 -6 50 -12 55 -14 6 -1 13 -3 17 -4 4 -1 22 -7 40 -12 47
-14 71 -20 88 -23 9 -1 20 -5 25 -8 6 -3 27 -9 48 -13 20 -4 40 -11 43 -16 3
-5 10 -7 15 -4 5 4 15 3 22 -2 6 -4 17 -8 22 -10 6 -1 21 -4 35 -7 33 -7 171
-47 190 -54 8 -3 20 -7 25 -8 6 -1 12 -3 15 -4 3 -1 12 -3 20 -5 8 -1 57 -14
108 -28 50 -14 92 -23 92 -19 0 4 4 2 8 -5 4 -6 23 -14 42 -18 19 -4 47 -9 61
-12 l27 -5 -20 69 c-10 37 -21 76 -24 85 -2 10 -6 26 -9 35 -2 10 -11 45 -20
78 -8 33 -19 67 -24 75 -4 8 -7 23 -5 33 1 9 -2 17 -8 17 -6 0 -8 9 -5 20 3
11 1 20 -4 20 -5 0 -9 7 -9 17 0 14 -23 100 -38 143 -3 8 -4 20 -3 27 1 6 -3
14 -9 18 -5 3 -10 16 -10 27 0 19 -8 49 -28 108 -8 25 -16 52 -26 97 -6 27
-48 176 -54 193 -8 24 -13 43 -15 67 -1 13 -5 23 -8 23 -6 0 -13 26 -26 98 -3
17 -8 32 -12 32 -4 0 -8 6 -8 13 -1 20 -10 58 -29 117 -10 30 -17 59 -15 64 1
6 -2 19 -8 30 -16 34 -53 178 -56 221 -2 22 3 55 11 73 7 17 11 32 8 32 -2 0
2 16 10 35 8 19 13 35 11 35 -2 0 1 15 7 33 9 29 41 144 53 190 3 9 7 25 10
35 31 120 58 211 67 229 6 11 7 26 4 32 -4 6 -3 11 2 11 6 0 12 15 15 33 3 17
12 57 21 87 9 30 18 62 21 70 2 8 13 49 25 90 11 41 23 82 25 90 1 8 9 35 16
60 7 25 14 50 14 55 1 6 7 26 13 46 14 39 23 77 24 97 1 6 5 12 9 12 4 0 6 8
5 18 -2 9 1 24 5 32 7 12 30 92 42 145 2 6 6 16 10 23 5 6 6 12 3 12 -3 0 -1
11 4 25 20 52 37 157 23 140 -4 -5 -17 -11 -28 -13 -11 -2 -39 -10 -63 -18
-23 -8 -49 -14 -57 -14 -8 0 -15 -3 -15 -7 0 -5 -10 -8 -22 -9 -27 -1 -56 -8
-80 -18 -9 -4 -22 -5 -28 -1 -5 3 -10 2 -10 -3 0 -8 -34 -20 -112 -38 -10 -2
-28 -7 -40 -10 -13 -3 -30 -7 -38 -9 -8 -2 -15 -4 -15 -5 0 -1 -7 -3 -15 -5
-100 -26 -146 -39 -150 -44 -3 -3 -14 -7 -25 -8 -24 -3 -60 -11 -60 -13 0 -1
-7 -3 -15 -5 -8 -2 -38 -10 -67 -18 -28 -8 -54 -12 -57 -9 -3 3 -6 1 -6 -4 0
-5 -8 -11 -17 -12 -30 -3 -48 -7 -58 -14 -10 -5 -72 -21 -77 -18 -2 0 -28 -8
-58 -18 -30 -11 -59 -20 -65 -22 -5 -1 -14 -4 -20 -5 -5 -2 -30 -8 -55 -15
-25 -6 -52 -13 -60 -15 -8 -2 -15 -4 -15 -5 0 -1 -7 -3 -15 -5 -8 -1 -35 -8
-60 -16 -25 -7 -49 -13 -55 -15 -5 -1 -30 -8 -55 -15 -25 -7 -48 -13 -52 -15
-5 -1 -9 -2 -10 -4 -2 -1 -10 -3 -18 -5 -8 -2 -28 -7 -45 -12 -52 -13 -175 -6
-175 9 0 6 -9 8 -20 5 -11 -3 -20 -1 -20 4 0 5 -8 9 -18 9 -10 0 -38 6 -63 14
-78 24 -124 37 -139 39 -8 2 -19 5 -25 8 -5 4 -35 12 -65 19 -30 7 -59 15 -65
19 -10 6 -14 7 -50 13 -11 2 -24 6 -30 9 -5 3 -36 12 -67 19 -32 7 -58 17 -58
21 0 4 -8 6 -17 4 -10 -1 -24 2 -30 8 -7 5 -13 7 -13 4 0 -3 -21 2 -47 10 -45
14 -97 29 -135 38 -9 2 -25 8 -36 14 -11 6 -21 8 -24 6 -2 -2 -33 5 -68 16
-61 19 -87 27 -117 33 -7 1 -16 5 -19 9 -4 4 -15 7 -25 7 -10 0 -30 5 -46 12
-15 6 -31 11 -35 10 -4 -1 -27 4 -50 12 -24 8 -56 17 -73 21 -16 5 -34 10 -40
11 -5 2 -31 8 -57 15 -27 6 -48 15 -48 20 0 6 -5 7 -10 4 -6 -4 -18 -1 -27 7
-14 11 -16 11 -8 -2 7 -13 6 -13 -7 -2 -9 7 -20 12 -24 10 -5 -1 -19 3 -31 10
-12 7 -24 8 -27 4z"/>
</g>
</svg>
